<!DOCTYPE svg PUBLIC "-//W3C//DTD SVG 1.1//EN" "http://www.w3.org/Graphics/SVG/1.1/DTD/svg11.dtd">
<!-- Uploaded to: SVG Repo, www.svgrepo.com, Transformed by: SVG Repo Mixer Tools -->
<svg width="212px" height="212px" viewBox="0 0 48.00 48.00" xmlns="http://www.w3.org/2000/svg" fill="#FD0E35" stroke="#FD0E35" stroke-width="2.16">
<g id="SVGRepo_bgCarrier" stroke-width="0"/>
<g id="SVGRepo_tracerCarrier" stroke-linecap="round" stroke-linejoin="round"/>
<g id="SVGRepo_iconCarrier">
<defs>
<style>.a{fill:none;stroke:#FD0E35;stroke-linecap:round;stroke-linejoin:round;}</style>
</defs>
<path class="a" d="M24.0152,28.1932c7.0647.0718,8.62,10.6443,16.1734,7.6038,6.3671-2.5628,1.8993-14.0563.181-17.828-2.0731-4.5511-5.4238-6.1232-8.0836-6.15-3.1794-.0324-5.3475,2.73-8.1319,2.7021s-4.8962-2.8344-8.0754-2.8667c-2.66-.027-6.0412,1.476-8.2071,5.9849C6.077,21.3752,1.3768,32.7756,7.6905,35.4672,15.1807,38.66,16.95,28.1215,24.0152,28.1932Z"/>
<circle class="a" cx="15.608" cy="21.167" r="4.344"/>
<circle class="a" cx="31.0049" cy="19.2869" r="1.4961"/>
<circle class="a" cx="34.9108" cy="23.2729" r="1.4961"/>
<line class="a" x1="15.608" y1="23.4928" x2="15.608" y2="18.8411"/>
<line class="a" x1="13.2822" y1="21.167" x2="17.9339" y2="21.167"/>
</g>
</svg>